<svg width="382" height="64" viewBox="0 0 382 64" fill="none" xmlns="http://www.w3.org/2000/svg">
<circle cx="4.52148" cy="5" r="3" fill="white"/>
<circle cx="22.5215" cy="5" r="3" fill="white"/>
<circle cx="40.5215" cy="5" r="3" fill="white"/>
<circle cx="58.5215" cy="23" r="4" fill="white"/>
<circle cx="58.5215" cy="59" r="4" fill="white"/>
<circle cx="58.5215" cy="41" r="4" fill="white"/>
<circle cx="40.5215" cy="59" r="4" fill="white"/>
<circle cx="22.5215" cy="59" r="4" fill="white"/>
<circle cx="4.52148" cy="23" r="3" fill="white"/>
<circle cx="22.5215" cy="23" r="4" fill="white"/>
<circle cx="40.5215" cy="23" r="4" fill="white"/>
<circle cx="4.52148" cy="41" r="3" fill="white"/>
<circle cx="22.5215" cy="41" r="4" fill="white"/>
<circle cx="40.5215" cy="41" r="4" fill="white"/>
<path d="M120.339 10V27.069C118.885 25.3621 115.471 22.3908 110.098 22.3908C101.816 22.3908 96 29.1552 96 38.1954C96 47.3621 102.132 54 110.414 54C115.851 54 119.201 51.0287 120.529 49.5115L121.224 53.2414H126.029V10H120.339ZM111.109 48.7529C105.862 48.7529 101.753 44.6437 101.753 38.2586C101.753 32.1264 105.736 27.7012 111.109 27.7012C116.23 27.7012 121.287 31.5575 121.287 38.2586C121.287 44.0115 116.862 48.7529 111.109 48.7529Z" fill="white"/>
<path d="M157.033 43.2529C156.021 46.9828 151.28 49.069 147.55 49.069C141.987 49.069 137.562 45.592 137.562 39.7126H161.016V37.9425C161.016 28.9023 155.642 22.3908 146.475 22.3908C138.383 22.3908 131.682 28.7759 131.682 38.2586C131.682 47.4885 138.383 54 147.55 54C154.125 54 160.573 50.523 162.406 44.5805L157.033 43.2529ZM146.475 27.4483C151.027 27.4483 154.884 30.2299 155.2 35.4138H137.562C138.004 30.7989 141.861 27.4483 146.475 27.4483Z" fill="white"/>
<path d="M192.174 41.7989C191.353 46.0345 187.054 48.6897 182.628 48.6897C176.939 48.6897 172.071 44.2644 172.071 38.1954C172.071 32.3161 175.991 27.7012 181.807 27.7012C186.169 27.7012 189.709 30.4828 190.531 34.7184L195.968 33.3908C194.324 26.3103 188.508 22.3908 181.617 22.3908C172.64 22.3908 166.192 29.3448 166.192 38.1954C166.192 47.046 173.272 54 182.502 54C189.33 54 196.031 50.0805 197.674 43.0632L192.174 41.7989Z" fill="white"/>
<path d="M226.672 43.2529C225.66 46.9828 220.919 49.069 217.189 49.069C211.626 49.069 207.201 45.592 207.201 39.7126H230.655V37.9425C230.655 28.9023 225.281 22.3908 216.114 22.3908C208.023 22.3908 201.321 28.7759 201.321 38.2586C201.321 47.4885 208.023 54 217.189 54C223.764 54 230.212 50.523 232.046 44.5805L226.672 43.2529ZM216.114 27.4483C220.666 27.4483 224.523 30.2299 224.839 35.4138H207.201C207.643 30.7989 211.5 27.4483 216.114 27.4483Z" fill="white"/>
<path d="M252.078 22.3908C247.969 22.3908 244.365 24.2874 242.848 26.6264L242.153 23.1494H237.285V53.2414H242.974V35.477C242.974 31.0517 246.262 27.7644 250.434 27.7644C254.29 27.7644 257.388 30.6724 257.388 34.9081V53.2414H263.078V33.9598C263.078 27.5115 258.905 22.3908 252.078 22.3908Z" fill="white"/>
<path d="M288.915 45.0862C288.409 47.2356 286.26 48.8161 283.857 48.8161C280.57 48.8161 278.231 46.2874 278.231 42.5575V28.1437H287.145V23.1494H278.231V13.7931L272.541 16.954V23.1494H267.105V28.1437H272.541V42.5575C272.541 49.1954 277.283 54 283.794 54C288.788 54 293.024 50.8391 294.099 46.3506L288.915 45.0862Z" fill="white"/>
<path d="M318.822 23.4023L309.339 49.6379L299.667 23.4023H295.747L307.19 53.2414H311.552L322.995 23.4023H318.822Z" fill="white"/>
<path d="M352.039 42.8103C351.028 47.3621 346.033 50.6494 341.039 50.6494C334.401 50.6494 328.711 45.592 328.711 38.3218C328.711 31.3678 333.326 25.9943 340.154 25.9943C345.085 25.9943 349.257 29.1552 350.269 33.7701L353.809 32.9483C352.229 26.5 346.602 22.6437 340.091 22.6437C331.43 22.6437 324.918 29.4713 324.918 38.3218C324.918 47.2356 331.999 54 340.976 54C347.298 54 353.999 50.0805 355.579 43.6954L352.039 42.8103Z" fill="white"/>
<path d="M363.607 30.7989C363.607 27.8276 366.263 25.8678 370.372 25.8678C374.544 25.8678 377.705 28.2701 378.084 32L381.372 31.0517C380.803 25.6149 375.809 22.6437 370.498 22.6437C364.619 22.6437 360.067 25.6782 360.067 30.7356C360.067 42.6207 378.274 35.6667 378.274 44.8333C378.274 48.1839 375.619 50.6494 370.751 50.6494C365.757 50.6494 362.786 48.4368 362.406 44.0747L359.056 45.0862C359.688 50.0805 363.607 54 370.435 54C377.389 54 381.941 50.3333 381.941 44.7701C381.941 32.1264 363.607 39.0172 363.607 30.7989Z" fill="white"/>
</svg>
