<svg width="322" height="64" viewBox="0 0 322 64" fill="none" xmlns="http://www.w3.org/2000/svg">
<circle cx="4.52148" cy="5" r="3" fill="white"/>
<circle cx="22.5215" cy="5" r="3" fill="white"/>
<circle cx="40.5215" cy="5" r="3" fill="white"/>
<circle cx="58.5215" cy="23" r="4" fill="white"/>
<circle cx="58.5215" cy="59" r="4" fill="white"/>
<circle cx="58.5215" cy="41" r="4" fill="white"/>
<circle cx="40.5215" cy="59" r="4" fill="white"/>
<circle cx="22.5215" cy="59" r="4" fill="white"/>
<circle cx="4.52148" cy="23" r="3" fill="white"/>
<circle cx="22.5215" cy="23" r="4" fill="white"/>
<circle cx="40.5215" cy="23" r="4" fill="white"/>
<circle cx="4.52148" cy="41" r="3" fill="white"/>
<circle cx="22.5215" cy="41" r="4" fill="white"/>
<circle cx="40.5215" cy="41" r="4" fill="white"/>
<path d="M123.658 7V26.3965C122.006 24.4569 118.126 21.0805 112.02 21.0805C102.609 21.0805 96 28.7672 96 39.0402C96 49.4569 102.968 57 112.379 57C118.557 57 122.365 53.6236 123.874 51.8994L124.664 56.1379H130.124V7H123.658ZM113.17 51.0373C107.207 51.0373 102.537 46.3678 102.537 39.1121C102.537 32.1437 107.063 27.1149 113.17 27.1149C118.989 27.1149 124.736 31.4971 124.736 39.1121C124.736 45.6494 119.707 51.0373 113.17 51.0373Z" fill="white"/>
<path d="M165.356 44.7874C164.206 49.0259 158.818 51.3965 154.58 51.3965C148.258 51.3965 143.229 47.4454 143.229 40.7644H169.881V38.7529C169.881 28.4799 163.775 21.0805 153.358 21.0805C144.163 21.0805 136.548 28.3362 136.548 39.1121C136.548 49.6006 144.163 57 154.58 57C162.051 57 169.379 53.0488 171.462 46.296L165.356 44.7874ZM153.358 26.8276C158.531 26.8276 162.913 29.9885 163.272 35.8793H143.229C143.732 30.6351 148.114 26.8276 153.358 26.8276Z" fill="white"/>
<path d="M205.289 43.1351C204.355 47.9483 199.47 50.9655 194.441 50.9655C187.976 50.9655 182.444 45.9368 182.444 39.0402C182.444 32.3592 186.898 27.1149 193.507 27.1149C198.464 27.1149 202.487 30.2759 203.421 35.0891L209.599 33.5805C207.732 25.5345 201.122 21.0805 193.292 21.0805C183.091 21.0805 175.763 28.9828 175.763 39.0402C175.763 49.0977 183.809 57 194.298 57C202.056 57 209.671 52.546 211.539 44.5718L205.289 43.1351Z" fill="white"/>
<path d="M244.491 44.7874C243.341 49.0259 237.953 51.3965 233.715 51.3965C227.393 51.3965 222.364 47.4454 222.364 40.7644H249.017V38.7529C249.017 28.4799 242.91 21.0805 232.494 21.0805C223.298 21.0805 215.683 28.3362 215.683 39.1121C215.683 49.6006 223.298 57 233.715 57C241.186 57 248.514 53.0488 250.597 46.296L244.491 44.7874ZM232.494 26.8276C237.666 26.8276 242.048 29.9885 242.407 35.8793H222.364C222.867 30.6351 227.249 26.8276 232.494 26.8276Z" fill="white"/>
<path d="M273.361 21.0805C268.692 21.0805 264.597 23.2356 262.873 25.8937L262.082 21.9425H256.551V56.1379H263.016V35.9511C263.016 30.9224 266.752 27.1868 271.493 27.1868C275.875 27.1868 279.396 30.4914 279.396 35.3046V56.1379H285.861V34.227C285.861 26.8994 281.12 21.0805 273.361 21.0805Z" fill="white"/>
<path d="M315.221 46.8707C314.647 49.3132 312.204 51.1092 309.474 51.1092C305.739 51.1092 303.081 48.2356 303.081 43.9971V27.6178H313.21V21.9425H303.081V11.3103L296.615 14.9023V21.9425H290.437V27.6178H296.615V43.9971C296.615 51.5402 302.003 57 309.402 57C315.078 57 319.891 53.408 321.112 48.3075L315.221 46.8707Z" fill="white"/>
</svg>
