<svg width="65" height="64" viewBox="0 0 65 64" color="white" xmlns="http://www.w3.org/2000/svg">
<path d="M8.85867 4.95082C8.85867 6.58051 7.53754 7.90164 5.90785 7.90164C4.27816 7.90164 2.95703 6.58051 2.95703 4.95082C2.95703 3.32113 4.27816 2 5.90785 2C7.53754 2 8.85867 3.32113 8.85867 4.95082Z" fill="currentColor"/>
<path d="M26.5636 4.95082C26.5636 6.58051 25.2425 7.90164 23.6128 7.90164C21.9831 7.90164 20.6619 6.58051 20.6619 4.95082C20.6619 3.32113 21.9831 2 23.6128 2C25.2425 2 26.5636 3.32113 26.5636 4.95082Z" fill="currentColor"/>
<path d="M44.2685 4.95082C44.2685 6.58051 42.9474 7.90164 41.3177 7.90164C39.688 7.90164 38.3669 6.58051 38.3669 4.95082C38.3669 3.32113 39.688 2 41.3177 2C42.9474 2 44.2685 3.32113 44.2685 4.95082Z" fill="currentColor"/>
<path d="M62.957 22.6557C62.957 24.8287 61.1955 26.5902 59.0226 26.5902C56.8497 26.5902 55.0882 24.8287 55.0882 22.6557C55.0882 20.4828 56.8497 18.7213 59.0226 18.7213C61.1955 18.7213 62.957 20.4828 62.957 22.6557Z" fill="currentColor"/>
<path d="M62.957 58.0656C62.957 60.2385 61.1955 62 59.0226 62C56.8497 62 55.0882 60.2385 55.0882 58.0656C55.0882 55.8927 56.8497 54.1311 59.0226 54.1311C61.1955 54.1311 62.957 55.8927 62.957 58.0656Z" fill="currentColor"/>
<path d="M62.957 40.3607C62.957 42.5336 61.1955 44.2951 59.0226 44.2951C56.8497 44.2951 55.0882 42.5336 55.0882 40.3607C55.0882 38.1877 56.8497 36.4262 59.0226 36.4262C61.1955 36.4262 62.957 38.1877 62.957 40.3607Z" fill="currentColor"/>
<path d="M45.2521 58.0656C45.2521 60.2385 43.4906 62 41.3177 62C39.1448 62 37.3833 60.2385 37.3833 58.0656C37.3833 55.8927 39.1448 54.1311 41.3177 54.1311C43.4906 54.1311 45.2521 55.8927 45.2521 58.0656Z" fill="currentColor"/>
<path d="M27.5472 58.0656C27.5472 60.2385 25.7857 62 23.6128 62C21.4398 62 19.6783 60.2385 19.6783 58.0656C19.6783 55.8927 21.4398 54.1311 23.6128 54.1311C25.7857 54.1311 27.5472 55.8927 27.5472 58.0656Z" fill="currentColor"/>
<path d="M8.85867 22.6557C8.85867 24.2854 7.53754 25.6066 5.90785 25.6066C4.27816 25.6066 2.95703 24.2854 2.95703 22.6557C2.95703 21.026 4.27816 19.7049 5.90785 19.7049C7.53754 19.7049 8.85867 21.026 8.85867 22.6557Z" fill="currentColor"/>
<path d="M27.5472 22.6557C27.5472 24.8287 25.7857 26.5902 23.6128 26.5902C21.4398 26.5902 19.6783 24.8287 19.6783 22.6557C19.6783 20.4828 21.4398 18.7213 23.6128 18.7213C25.7857 18.7213 27.5472 20.4828 27.5472 22.6557Z" fill="currentColor"/>
<path d="M45.2521 22.6557C45.2521 24.8287 43.4906 26.5902 41.3177 26.5902C39.1448 26.5902 37.3833 24.8287 37.3833 22.6557C37.3833 20.4828 39.1448 18.7213 41.3177 18.7213C43.4906 18.7213 45.2521 20.4828 45.2521 22.6557Z" fill="currentColor"/>
<path d="M8.85867 40.3607C8.85867 41.9903 7.53754 43.3115 5.90785 43.3115C4.27816 43.3115 2.95703 41.9903 2.95703 40.3607C2.95703 38.731 4.27816 37.4098 5.90785 37.4098C7.53754 37.4098 8.85867 38.731 8.85867 40.3607Z" fill="currentColor"/>
<path d="M27.5472 40.3607C27.5472 42.5336 25.7857 44.2951 23.6128 44.2951C21.4398 44.2951 19.6783 42.5336 19.6783 40.3607C19.6783 38.1877 21.4398 36.4262 23.6128 36.4262C25.7857 36.4262 27.5472 38.1877 27.5472 40.3607Z" fill="currentColor"/>
<path d="M45.2521 40.3607C45.2521 42.5336 43.4906 44.2951 41.3177 44.2951C39.1448 44.2951 37.3833 42.5336 37.3833 40.3607C37.3833 38.1877 39.1448 36.4262 41.3177 36.4262C43.4906 36.4262 45.2521 38.1877 45.2521 40.3607Z" fill="currentColor"/>
</svg>
